# xmcd
#
# Track frame offsets:
#	150
#	11112
#	23719
#	36467
#	47318
#	57470
#	68237
#	79115
#	90926
#	101477
#	112661
#	124898
#
# Disc length: 1804 seconds
#
# Revision: 1
# Processed by: cddbd v1.5.1PL0 Copyright (c) Steve Scherf et al.
# Submitted via: audiograbber 1.83.01
#
DISCID=8f070a0c
DTITLE=Red Sovine - The Golden Country Ballads of the 60's
DYEAR=1900
DGENRE=
TTITLE0=East of West Berlin
TTITLE1=A Wound Time Can't Erase
TTITLE2=Thanks For Nothing
TTITLE3=Willow Tree
TTITLE4=Tears Broke Out of Me
TTITLE5=Losing Your Love
TTITLE6=She Can't Read My Writing
TTITLE7=Tender Years
TTITLE8=If a Woman Answers (Hang Up the Phone)
TTITLE9=Hello Fool
TTITLE10=There's Always One ( Who Loves a Lot)
TTITLE11=Rose of Love
EXTD=
EXTT0=
EXTT1=
EXTT2=
EXTT3=
EXTT4=
EXTT5=
EXTT6=
EXTT7=
EXTT8=
EXTT9=
EXTT10=
EXTT11=
PLAYORDER=
